<svg width="136" height="71" viewBox="0 0 136 71" fill="none" xmlns="http://www.w3.org/2000/svg">
<path fill-rule="evenodd" clip-rule="evenodd" d="M8.03263 32.626L7.4624 33.6795H7.88182C8.64223 33.6795 11.5303 34.1295 13.9523 33.6795C17 33.1135 19.5238 35.4036 24.9188 33.9216C30.4792 32.3943 33.829 34.0772 35.189 34.0655C36.5339 34.054 38.5909 33.2722 38.5909 34.0656C38.5909 35.1792 35.0547 32.5923 29.7928 33.6795C25.8994 34.484 22.7823 33.3325 20.5475 34.0655C12.4068 36.7358 8.32707 41.1867 7.60571 48.1851C6.86272 55.3923 10.4695 60.3984 16.4005 60.3921C21.2056 60.3871 25.5712 57.0505 27.5154 51.897C27.9424 50.7651 28.4933 48.5573 28.4933 47.9778C28.4933 47.5455 28.5217 47.5387 29.0939 47.8337C29.6458 48.1183 30.2189 48.8641 30.5405 49.7165C30.9227 50.7285 30.8884 53.4582 30.4726 55.1443C30.0738 56.7613 29.3712 58.4749 28.6983 59.472C28.4203 59.8839 28.1928 60.2479 28.1928 60.2807C28.1928 60.3137 31.0889 60.3406 34.6284 60.3406H41.0642L41.5362 58.8054C42.7205 54.953 43.1368 52.0742 43.0204 48.541C42.9277 45.7263 42.6872 44.3935 41.9403 42.5541C40.1758 38.2082 36.2849 35.9901 30.9138 36.2678C27.5759 36.4403 25.7306 37.6495 24.075 40.7491C22.5396 43.6234 21.6984 44.4638 20.3567 44.4638C19.1683 44.4638 18.5487 43.687 18.5487 42.1974C18.5487 39.9407 20.7811 37.3938 24.0356 35.9379C27.4586 34.4066 32.2312 35.076 38.1927 35.0736L41.6102 35.0721L41.6102 32.1514L38.5909 32.626L24.9188 34.7599L12.5597 33.0744L8.03263 32.626Z" fill="#FDF9D3"/>
<path d="M24.6016 5.72949C24.8621 5.24339 25.395 5.21236 25.7998 5.66016C26.5051 6.44095 27.8283 12.1838 27.834 14.4893C27.8391 16.4738 28.4038 16.6569 29.2666 14.9541C31.0383 11.4581 34.0519 7.71718 35.0068 7.82812C35.3515 7.86808 35.5171 8.01313 35.5596 8.31152C35.5929 8.54629 35.0553 10.6612 34.3652 13.0107C33.6749 15.3603 33.1368 17.5418 33.1689 17.8584L33.2275 18.4336L35.499 16.8418C40.6169 13.2552 41.3891 12.7496 41.8418 12.6855C43.0183 12.5195 42.1115 14.0664 37.9199 19.377C36.7751 20.8272 36.6 21.5435 37.4404 21.333C37.7278 21.2607 39.325 20.6268 40.9902 19.9238C42.6563 19.2207 44.4539 18.4903 44.9854 18.3018C46.0441 17.9263 46.9541 18.0208 46.9541 18.5059C46.9541 18.9341 46.6202 19.2429 42.3154 22.8008C41.3784 23.5754 40.3772 24.4301 40.0908 24.7002C39.5607 25.1997 39.4251 25.6645 39.751 25.8662C39.8507 25.9277 41.954 26.1043 44.4248 26.2578C47.8039 26.468 49.0289 26.6105 49.3672 26.832C50.385 27.499 49.5368 27.9481 44.5898 29.3643C40.968 30.4008 40.1044 30.728 40.3477 30.9717C40.3971 31.0211 42.2795 31.1458 44.5312 31.248C48.5274 31.4294 49.415 31.5893 49.415 32.1289C49.4149 32.6472 48.7363 33.0416 46.1016 34.0557L43.2617 35.1484L31.7129 35.2109C19.7351 35.2759 18.6592 35.2377 8.37012 34.3838C3.87391 34.0106 2.73686 33.8608 2.36426 33.5898C1.84767 33.214 1.80206 33.0109 2.13574 32.5762C2.76827 31.7524 5.76408 31.0235 8.16113 31.1104C9.88649 31.1728 10.3815 31.0056 10.1621 30.4336C10.1003 30.2735 9.8121 30.0911 9.52148 30.0273C4.86447 29.0083 0 26.7518 0 25.6113C0.000204408 24.6269 1.10685 24.6066 6.37598 25.4922C8.54051 25.8559 10.458 26.1064 10.6367 26.0498C10.9869 25.9384 11.2625 25.3216 11.0879 25.0391C11.029 24.9436 10.6054 24.7382 10.1475 24.582C9.08652 24.2205 7.70324 23.3331 4.89551 21.2129C2.92212 19.7227 2.08301 18.8326 2.08301 18.2314C2.08315 18.1324 2.34173 17.9609 2.6582 17.8506C3.13832 17.6833 3.61767 17.7604 5.5459 18.3174C8.82614 19.2648 11.1069 19.9908 12.2656 20.4541C12.8161 20.6743 13.4369 20.8544 13.6445 20.8545C14.5319 20.8545 14.2204 20.2647 12.2422 18.2002C10.265 16.1369 8.06863 13.1495 7.83008 12.1992C7.67733 11.5904 7.98131 11.0819 8.44629 11.1689C8.63861 11.2052 10.7145 12.5619 13.0596 14.1836C17.2443 17.0775 18.2196 17.6544 18.4814 17.3926C18.5522 17.3186 18.0856 16.2161 17.4434 14.9404C16.8002 13.6636 16.1383 12.0645 15.9727 11.3877C15.807 10.7108 15.4256 9.61233 15.125 8.94727C14.4871 7.53573 14.4317 6.92657 14.9297 6.7959C15.2972 6.69991 16.1682 7.02663 16.6699 7.44922C17.1479 7.85183 19.3842 10.6371 20.2129 11.8613C20.6357 12.4861 21.3331 13.65 21.7627 14.4473C22.9775 16.7019 23.3081 16.5746 23.5645 13.7549C23.9151 9.89502 24.4069 6.09338 24.6016 5.72949ZM28.4648 21.1006C25.5358 18.1716 22.1778 19.8802 20.8652 21.1006L19.2764 22.2754C16.928 23.5879 15.6845 25.5907 15.1318 26.3506C14.5792 27.1105 14.7861 31.8773 14.7861 32.499C14.7871 32.9962 18.8871 33.0285 21.627 32.9824V29.2842C21.6271 28.5874 22.1304 27.9926 22.8174 27.876L23.6201 27.7393C24.4924 27.5911 25.2891 28.2637 25.2891 29.1484V32.9824C26.0643 33.3689 32.3796 32.8214 34.751 32.499C34.8201 31.3017 34.9167 28.6167 34.751 27.4561C34.5437 26.0054 33.2306 24.2092 32.7471 24.002C32.3594 23.8355 29.7312 21.9985 28.4648 21.1006Z" fill="#FDF9D3"/>
<path d="M62.1192 29.2733C59.8101 29.2733 57.1731 28.4125 56.0391 26.3357C55.6155 25.5842 55.4379 24.8601 55.4379 24.1769C55.4379 22.0728 57.1595 20.4742 59.1679 20.4742C59.7691 20.4742 60.3976 20.6109 61.0124 20.9388C60.5752 21.8269 60.3839 22.7286 60.3839 23.5894C60.3839 26.1581 61.9825 28.0299 63.5538 28.0299C65.0704 28.0299 66.546 26.5543 66.546 24.8601C66.546 23.6987 65.8628 22.4144 64.032 21.4307C62.2968 20.4879 60.1517 19.7501 58.5121 18.9713C56.1211 17.8646 55.1237 16.2797 55.1237 14.7084C55.1237 11.7845 58.5804 8.83328 62.9526 8.83328C63.1302 8.83328 63.3215 8.83328 63.4991 8.84695C66.5733 9.02457 69.6475 11.156 69.6475 13.6837C69.6475 14.7767 69.06 15.9518 67.6254 17.0721C65.4666 13.6154 61.6546 12.3994 59.1816 12.3994C57.7743 12.3994 56.7906 12.7956 56.7906 13.3831C56.7906 14.0936 58.2115 15.1046 61.9825 16.0747C65.9995 17.1131 69.7295 18.8893 69.7295 22.5647C69.7295 26.0078 66.6553 29.2733 62.1192 29.2733ZM77.5858 29.082C74.1837 29.082 70.7816 26.7456 70.7816 22.9609C70.7816 22.551 70.8225 22.1275 70.9045 21.6902C71.3281 19.4632 72.1479 17.0038 72.1479 14.5581C72.1479 12.7546 71.697 10.9511 70.2897 9.2705C71.0002 9.12021 71.697 9.03823 72.3391 9.03823C75.2084 9.03823 76.8753 10.6641 76.8753 12.6726C76.8753 13.6837 76.4517 14.7904 75.55 15.8424C73.1453 18.6434 72.2298 20.8978 72.2298 22.6057C72.2298 25.0787 74.17 26.363 76.1921 26.363C77.4765 26.363 78.8018 25.8575 79.7035 24.8191C80.6053 23.7944 80.9606 21.7859 80.9606 19.5315C80.9606 15.4462 79.7992 10.5685 78.5558 9.18853C79.4166 9.35248 80.455 9.4208 81.4661 9.4208C82.6684 9.4208 83.8161 9.32516 84.4993 9.20219C84.4993 9.24318 84.226 15.6102 84.226 20.9934C84.226 24.5732 84.349 27.7293 84.7589 28.3168C84.0757 27.9753 83.4882 27.8523 82.928 27.8523C81.4661 27.8523 80.3184 28.7404 78.7198 28.9863C78.3509 29.0547 77.9683 29.082 77.5858 29.082ZM96.878 29.2733H89.7459C92.3009 25.2836 88.4343 12.331 96.9054 12.331C99.556 12.331 100.581 11.4019 100.581 10.5138C100.581 9.70772 99.72 8.94259 98.4766 8.94259C97.3972 8.94259 96.0173 9.50278 94.6236 11.115C92.7381 13.3148 90.634 14.2849 88.9261 14.2849C86.9996 14.2849 85.5923 13.0552 85.5923 10.9511C85.5923 10.104 85.8246 9.12021 86.3301 8.0135C86.7127 9.13387 87.5735 9.50278 88.7212 9.50278C90.8253 9.50278 94.2274 8.17746 97.2196 8.17746C100.594 8.17746 102.043 9.46179 102.043 10.7871C102.043 12.2081 100.362 13.6837 97.5885 13.6837C95.7167 13.6837 95.0745 15.7605 95.0745 18.5067C95.0745 21.9089 96.0583 26.363 96.878 29.2733ZM117.974 32.648C117.632 32.648 117.291 32.6207 116.949 32.5661C112.522 31.8556 109.995 27.866 109.995 23.5758C109.995 23.0975 110.022 22.6057 110.09 22.1275L110.104 22.0592C108.943 23.6031 108.123 25.2973 108.123 27.3878C108.123 27.9206 108.177 28.4671 108.287 29.041H102.589C103.368 27.7703 103.682 24.1359 103.682 20.283C103.682 15.6922 103.245 10.7734 102.699 9.17486C103.395 9.24318 104.078 9.2705 104.748 9.2705C106.811 9.2705 108.738 9.02457 110.746 9.02457C113.11 9.03823 116.853 10.1586 116.853 12.7956C116.853 13.4651 116.621 14.2302 116.061 15.091C114.777 17.0995 112.987 18.7527 111.429 20.4606C111.784 23.7807 114.435 27.9479 118.616 27.9479C119.094 27.9479 119.586 27.8933 120.092 27.784C121.936 27.3741 122.578 26.1854 122.578 24.7781C122.578 22.9746 121.526 20.7885 120.584 19.2992C120.843 20.1053 120.966 20.8841 120.966 21.5946C120.966 24.0676 119.531 25.8848 117.468 25.8848C116.143 25.8848 114.572 25.147 112.96 23.3435C113.328 23.4938 113.656 23.5484 113.957 23.5484C117.783 23.5484 117.113 12.7546 121.868 10.7734C121.554 10.0083 121.13 9.43446 120.611 9.09288C124.177 9.09288 126.09 9.40713 127.019 11.361C128.453 14.4215 128.631 23.4255 130.79 29.041H128.494C122.852 29.041 123.986 16.9492 122.141 11.4566C120.379 13.0142 119.777 14.2712 119.777 15.4052C119.777 17.2224 121.335 18.739 122.264 20.6928C123.138 22.5374 123.548 24.4912 123.548 26.2537C123.548 27.9753 123.152 29.5055 122.36 30.5303C121.321 31.8966 119.709 32.648 117.974 32.648ZM107.713 25.1333C108.642 19.5451 111.976 19.4632 112.085 12.5633V12.3584C112.085 10.4182 111.498 9.58475 110.76 9.58475C109.913 9.58475 108.861 10.6778 108.287 12.3857C107.672 14.1892 107.494 16.7442 107.494 19.3539C107.494 21.3487 107.604 23.3845 107.713 25.1333Z" fill="#FDF9D3"/>
<path d="M62.1192 60.3699C59.8101 60.3699 57.1731 59.5092 56.0391 57.4324C55.6155 56.6809 55.4379 55.9568 55.4379 55.2736C55.4379 53.1695 57.1595 51.5709 59.1679 51.5709C59.7691 51.5709 60.3976 51.7075 61.0124 52.0355C60.5752 52.9236 60.3839 53.8253 60.3839 54.6861C60.3839 57.2548 61.9825 59.1266 63.5538 59.1266C65.0704 59.1266 66.546 57.651 66.546 55.9568C66.546 54.7954 65.8628 53.5111 64.032 52.5273C62.2968 51.5846 60.1517 50.8468 58.5121 50.068C56.1211 48.9613 55.1237 47.3763 55.1237 45.8051C55.1237 42.8812 58.5804 39.93 62.9526 39.93C63.1302 39.93 63.3215 39.93 63.4991 39.9436C66.5733 40.1212 69.6475 42.2527 69.6475 44.7804C69.6475 45.8734 69.06 47.0484 67.6254 48.1688C65.4666 44.712 61.6546 43.496 59.1816 43.496C57.7743 43.496 56.7906 43.8923 56.7906 44.4798C56.7906 45.1903 58.2115 46.2013 61.9825 47.1714C65.9995 48.2098 69.7295 49.986 69.7295 53.6614C69.7295 57.1045 66.6553 60.3699 62.1192 60.3699ZM81.5754 60.3699H74.4433C76.9983 56.3803 73.1316 43.4277 81.6027 43.4277C84.2534 43.4277 85.2781 42.4986 85.2781 41.6105C85.2781 40.8044 84.4173 40.0393 83.174 40.0393C82.0946 40.0393 80.7146 40.5995 79.321 42.2117C77.4355 44.4115 75.3314 45.3815 73.6235 45.3815C71.697 45.3815 70.2897 44.1519 70.2897 42.0477C70.2897 41.2006 70.522 40.2169 71.0275 39.1102C71.4101 40.2306 72.2708 40.5995 73.4185 40.5995C75.5226 40.5995 78.9248 39.2741 81.917 39.2741C85.2918 39.2741 86.74 40.5585 86.74 41.8838C86.74 43.3047 85.0595 44.7804 82.2859 44.7804C80.414 44.7804 79.7719 46.8571 79.7719 49.6034C79.7719 53.0055 80.7556 57.4597 81.5754 60.3699ZM83.5565 63.1845C82.4498 63.1845 81.4524 62.679 80.9196 61.6406C85.2371 61.6406 85.6743 46.3926 89.7049 42.3893C89.3224 41.2689 88.9261 40.4628 88.4752 40.1896C92.055 40.1896 93.9678 40.5038 94.8832 42.444C96.3315 45.4908 96.4955 54.5085 98.6542 60.1103H96.3725C94.6646 60.1103 93.6262 59.4409 93.0797 58.2112C91.6724 54.9867 89.7732 54.7817 88.2157 53.0465C88.3386 53.7024 88.4479 54.3035 88.5436 54.8637C88.6529 55.5195 88.7075 56.148 88.7075 56.7356C88.7075 60.9575 85.8929 63.1845 83.5565 63.1845ZM92.1916 54.8501C91.7817 52.4044 91.0166 46.9665 90.0192 43.4141C88.4206 45.4225 87.9561 47.7043 87.9424 49.822C87.9424 52.8279 90.4427 53.2925 92.1916 54.8501ZM104.174 60.3973C101.851 60.3973 99.638 59.5775 99.0232 58.3478C99.4057 58.4434 99.7883 58.4981 100.185 58.4981C103.382 58.4981 107.057 55.3009 109.038 50.6692C107.85 51.8852 106.142 52.664 104.502 52.664C104.01 52.664 103.532 52.5956 103.081 52.459C98.9138 51.161 100.731 45.5592 97.6978 40.2715H99.1598C101.933 40.2715 103.272 40.4628 103.969 42.8949C104.27 43.8786 104.707 47.1304 105.609 49.5215C106.06 50.7238 106.606 51.2157 107.139 51.2157C108.423 51.2157 109.694 48.3191 109.694 45.5045C109.694 42.8265 108.56 40.2306 105.213 40.2306C105.691 39.2468 107.166 38.591 108.656 38.5773C110.486 38.5773 112.331 39.5747 112.331 42.1434C112.331 43.3457 111.853 44.4388 111.388 45.7368C110.323 48.8656 110.842 52.6366 110.459 55.9294C110.104 59.1539 107.057 60.3973 104.174 60.3973ZM119.805 60.3699C117.496 60.3699 114.859 59.5092 113.725 57.4324C113.301 56.6809 113.123 55.9568 113.123 55.2736C113.123 53.1695 114.845 51.5709 116.853 51.5709C117.455 51.5709 118.083 51.7075 118.698 52.0355C118.261 52.9236 118.069 53.8253 118.069 54.6861C118.069 57.2548 119.668 59.1266 121.239 59.1266C122.756 59.1266 124.232 57.651 124.232 55.9568C124.232 54.7954 123.548 53.5111 121.718 52.5273C119.982 51.5846 117.837 50.8468 116.198 50.068C113.807 48.9613 112.809 47.3763 112.809 45.8051C112.809 42.8812 116.266 39.93 120.638 39.93C120.816 39.93 121.007 39.93 121.185 39.9436C124.259 40.1212 127.333 42.2527 127.333 44.7804C127.333 45.8734 126.746 47.0484 125.311 48.1688C123.152 44.712 119.34 43.496 116.867 43.496C115.46 43.496 114.476 43.8923 114.476 44.4798C114.476 45.1903 115.897 46.2013 119.668 47.1714C123.685 48.2098 127.415 49.986 127.415 53.6614C127.415 57.1045 124.341 60.3699 119.805 60.3699Z" fill="#FDF9D3"/>
</svg>
