<svg width="100" height="51" viewBox="0 0 100 51" fill="none" xmlns="http://www.w3.org/2000/svg">
<path fill-rule="evenodd" clip-rule="evenodd" d="M5.9086 24L5.48914 24.775H5.79766C6.35702 24.775 8.48151 25.106 10.2631 24.775C12.505 24.3586 14.3615 26.0432 18.3301 24.9531C22.4203 23.8296 24.8845 25.0675 25.8848 25.0589C26.8742 25.0504 28.3873 24.4753 28.3873 25.059C28.3873 25.8782 25.7861 23.9752 21.9154 24.775C19.0514 25.3668 16.7585 24.5197 15.1146 25.0589C9.12621 27.0232 6.12519 30.2973 5.59456 35.4453C5.04801 40.7469 7.70117 44.4295 12.064 44.4248C15.5987 44.4211 18.81 41.9667 20.2401 38.1758C20.5543 37.3432 20.9595 35.7191 20.9595 35.2928C20.9595 34.9749 20.9804 34.9698 21.4013 35.1868C21.8073 35.3962 22.2288 35.9448 22.4654 36.5718C22.7465 37.3163 22.7213 39.3242 22.4155 40.5645C22.1221 41.754 21.6053 43.0145 21.1103 43.748C20.9058 44.051 20.7385 44.3187 20.7385 44.3429C20.7385 44.3671 22.8689 44.3869 25.4725 44.3869H30.2067L30.5539 43.2576C31.4251 40.4238 31.7313 38.3061 31.6456 35.7071C31.5774 33.6366 31.4005 32.6562 30.8511 31.3031C29.5532 28.1063 26.691 26.4746 22.74 26.6789C20.2846 26.8058 18.9272 27.6953 17.7094 29.9754C16.5799 32.0897 15.9611 32.7079 14.9742 32.7079C14.1 32.7079 13.6442 32.1365 13.6442 31.0408C13.6442 29.3807 15.2864 27.5072 17.6804 26.4363C20.1983 25.3098 23.7091 25.8022 28.0944 25.8005L30.6083 25.7994L30.6083 23.6509L28.3873 24L18.3301 25.5697L9.23874 24.3299L5.9086 24Z" fill="white"/>
<path d="M18.0967 4.21518C18.2882 3.85743 18.6807 3.83412 18.9785 4.16343C19.4973 4.73778 20.4714 8.96264 20.4756 10.6585C20.4794 12.1181 20.8947 12.2529 21.5293 11.0003C22.8324 8.42909 25.0482 5.67738 25.751 5.75815C26.0047 5.78754 26.127 5.89483 26.1582 6.1146C26.1822 6.28894 25.7866 7.8434 25.2793 9.57065C24.7718 11.2981 24.3762 12.9019 24.3994 13.1361L24.4424 13.5599L26.1133 12.389C29.8783 9.75052 30.4463 9.37847 30.7793 9.33139C31.6447 9.20929 30.9776 10.3472 27.8945 14.2533C27.0525 15.32 26.923 15.8474 27.541 15.6927C27.7516 15.6399 28.9268 15.173 30.1523 14.6556C31.3779 14.1384 32.7009 13.6019 33.0918 13.4632C33.8704 13.1871 34.5397 13.2561 34.54 13.6126C34.54 13.9277 34.2937 14.1555 31.127 16.7728C30.4379 17.3424 29.702 17.9705 29.4912 18.1693C29.1011 18.5368 29.0012 18.8794 29.2412 19.0277C29.3151 19.073 30.8624 19.2019 32.6797 19.3148C35.1654 19.4694 36.0667 19.5747 36.3154 19.7376C37.0636 20.2282 36.4393 20.5594 32.8008 21.6009C30.1361 22.3636 29.5004 22.6043 29.6797 22.7835C29.7179 22.8199 31.1025 22.9105 32.7578 22.9857C35.6973 23.1191 36.3496 23.2372 36.3496 23.6341C36.3494 24.0153 35.8508 24.3053 33.9131 25.0511L31.8242 25.8558L23.3281 25.9017C14.5174 25.9495 13.7259 25.9214 6.15723 25.2933C2.85047 25.0189 2.01447 24.9076 1.74023 24.7083C1.3601 24.4318 1.32592 24.283 1.57129 23.9632C2.03659 23.3573 4.24059 22.8212 6.00391 22.8851C7.27305 22.9311 7.637 22.8078 7.47559 22.3871C7.43023 22.2693 7.21862 22.1352 7.00488 22.0882C3.57949 21.3388 0.00083837 19.6792 0 18.8402C0 18.1158 0.814127 18.0998 4.69043 18.7513C6.28095 19.0186 7.69006 19.2035 7.82422 19.1624C8.08187 19.0806 8.2848 18.6261 8.15625 18.4183C8.11203 18.3479 7.80112 18.1971 7.46484 18.0824C6.6844 17.8165 5.66699 17.1635 3.60156 15.6039C2.15035 14.508 1.53258 13.8537 1.53223 13.4115C1.53223 13.3386 1.72319 13.2124 1.95605 13.1312C2.30912 13.0082 2.66128 13.0654 4.0791 13.4749C6.49239 14.172 8.1711 14.7054 9.02344 15.0462C9.4282 15.2081 9.88431 15.3401 10.0371 15.3402C10.6898 15.3402 10.461 14.9067 9.00586 13.388C7.55152 11.8703 5.93537 9.67308 5.75977 8.97397C5.64742 8.52626 5.87108 8.15248 6.21289 8.21616C6.35425 8.24276 7.88227 9.24094 9.60742 10.4339C12.6853 12.5624 13.4031 12.9869 13.5957 12.7943C13.6476 12.7395 13.3044 11.9278 12.832 10.9896C12.3591 10.0506 11.872 8.8754 11.75 8.37729C11.6282 7.87949 11.3471 7.07166 11.126 6.58237C10.6565 5.54355 10.6167 5.09532 10.9834 4.99936C11.2539 4.92905 11.8938 5.16911 12.2627 5.47983C12.6145 5.77627 14.2596 7.82448 14.8691 8.72495C15.1801 9.18454 15.6928 10.0408 16.0088 10.6273C16.9025 12.286 17.1464 12.1921 17.335 10.1175C17.5927 7.27988 17.9533 4.48554 18.0967 4.21518ZM20.9385 15.5218C18.7841 13.3675 16.3143 14.6241 15.3486 15.5218L14.1797 16.3861C12.452 17.3516 11.5374 18.8251 11.1309 19.3841C10.7244 19.943 10.8769 23.4486 10.877 23.9066C10.877 24.2725 13.8935 24.2959 15.9092 24.2621V21.5423C15.9092 21.0297 16.2788 20.592 16.7842 20.5062L17.375 20.4056C18.0166 20.2967 18.6025 20.791 18.6025 21.4417V24.2621C19.1723 24.5465 23.818 24.1437 25.5625 23.9066C25.6133 23.0258 25.6844 21.0515 25.5625 20.1976C25.4101 19.1306 24.4447 17.8092 24.0889 17.6566C23.8043 17.5346 21.8701 16.1824 20.9385 15.5218Z" fill="white"/>
<path d="M45.6951 21.201C43.9965 21.201 42.0568 20.5678 41.2226 19.0401C40.911 18.4874 40.7804 17.9547 40.7804 17.4522C40.7804 15.9044 42.0467 14.7284 43.5242 14.7284C43.9664 14.7284 44.4287 14.829 44.881 15.0702C44.5594 15.7235 44.4187 16.3868 44.4187 17.02C44.4187 18.9095 45.5946 20.2864 46.7504 20.2864C47.866 20.2864 48.9515 19.201 48.9515 17.9547C48.9515 17.1004 48.449 16.1556 47.1022 15.432C45.8258 14.7385 44.2478 14.1958 43.0417 13.6229C41.2829 12.8088 40.5492 11.6429 40.5492 10.4871C40.5492 8.33627 43.092 6.16535 46.3082 6.16535C46.4388 6.16535 46.5795 6.16535 46.7102 6.1754C48.9716 6.30605 51.233 7.87394 51.233 9.7333C51.233 10.5374 50.8008 11.4017 49.7455 12.2258C48.1575 9.68305 45.3534 8.78855 43.5342 8.78855C42.499 8.78855 41.7754 9.08002 41.7754 9.51219C41.7754 10.0348 42.8206 10.7786 45.5946 11.4922C48.5495 12.256 51.2933 13.5626 51.2933 16.2662C51.2933 18.7989 49.0319 21.201 45.6951 21.201ZM57.0724 21.0603C54.5698 21.0603 52.0672 19.3417 52.0672 16.5577C52.0672 16.2561 52.0973 15.9446 52.1576 15.6229C52.4692 13.9847 53.0722 12.1756 53.0722 10.3765C53.0722 9.04986 52.7406 7.72319 51.7053 6.48696C52.228 6.37641 52.7406 6.3161 53.2129 6.3161C55.3236 6.3161 56.5497 7.51212 56.5497 8.98956C56.5497 9.7333 56.2382 10.5474 55.5748 11.3213C53.8059 13.3817 53.1325 15.04 53.1325 16.2963C53.1325 18.1155 54.5597 19.0602 56.0472 19.0602C56.992 19.0602 57.9669 18.6884 58.6302 17.9245C59.2935 17.1707 59.5549 15.6933 59.5549 14.035C59.5549 11.0298 58.7006 7.44177 57.7859 6.42666C58.4191 6.54727 59.183 6.59752 59.9267 6.59752C60.8112 6.59752 61.6554 6.52717 62.158 6.43671C62.158 6.46686 61.9569 11.1504 61.9569 15.1104C61.9569 17.7436 62.0474 20.0653 62.3489 20.4975C61.8464 20.2462 61.4142 20.1558 61.0021 20.1558C59.9267 20.1558 59.0825 20.809 57.9066 20.99C57.6352 21.0402 57.3538 21.0603 57.0724 21.0603ZM71.2638 21.201H66.0174C67.8968 18.2663 65.0525 8.7383 71.2839 8.7383C73.2337 8.7383 73.9875 8.05486 73.9875 7.40157C73.9875 6.80858 73.3543 6.24575 72.4397 6.24575C71.6457 6.24575 70.6306 6.65782 69.6054 7.84379C68.2185 9.46194 66.6707 10.1755 65.4143 10.1755C63.9972 10.1755 62.962 9.27098 62.962 7.72319C62.962 7.10005 63.1329 6.37641 63.5047 5.56231C63.7861 6.38646 64.4193 6.65782 65.2636 6.65782C66.8114 6.65782 69.314 5.68292 71.515 5.68292C73.9975 5.68292 75.0629 6.62767 75.0629 7.60258C75.0629 8.64784 73.8267 9.7333 71.7864 9.7333C70.4095 9.7333 69.9371 11.261 69.9371 13.2812C69.9371 15.7838 70.6607 19.0602 71.2638 21.201ZM86.7819 23.6835C86.5306 23.6835 86.2794 23.6634 86.0281 23.6232C82.7717 23.1006 80.9123 20.1658 80.9123 17.0099C80.9123 16.6582 80.9324 16.2963 80.9827 15.9446L80.9927 15.8943C80.1384 17.03 79.5354 18.2763 79.5354 19.814C79.5354 20.206 79.5756 20.608 79.656 21.0302H75.4649C76.0378 20.0955 76.269 17.422 76.269 14.5877C76.269 11.2107 75.9474 7.59253 75.5453 6.41661C76.0579 6.46686 76.5604 6.48696 77.0529 6.48696C78.5706 6.48696 79.9877 6.30605 81.4651 6.30605C83.2039 6.3161 85.9577 7.14025 85.9577 9.08002C85.9577 9.57249 85.7869 10.1353 85.3748 10.7685C84.43 12.2459 83.1134 13.4621 81.9677 14.7184C82.229 17.1607 84.1788 20.2261 87.2543 20.2261C87.606 20.2261 87.9679 20.1859 88.3397 20.1055C89.6966 19.804 90.1689 18.9296 90.1689 17.8944C90.1689 16.5677 89.395 14.9596 88.7015 13.8641C88.8925 14.4571 88.983 15.03 88.983 15.5526C88.983 17.3717 87.9277 18.7085 86.41 18.7085C85.4351 18.7085 84.2793 18.1657 83.0933 16.8391C83.3647 16.9496 83.6059 16.9898 83.827 16.9898C86.6412 16.9898 86.1487 9.04986 89.6463 7.59253C89.4151 7.0297 89.1036 6.60757 88.7216 6.35631C91.3449 6.35631 92.7519 6.58747 93.4354 8.0247C94.4907 10.276 94.6213 16.8994 96.2093 21.0302H94.5208C90.3699 21.0302 91.2041 12.1354 89.8473 8.09506C88.5508 9.24082 88.1086 10.1655 88.1086 10.9997C88.1086 12.3364 89.2543 13.452 89.9378 14.8893C90.581 16.2461 90.8825 17.6833 90.8825 18.9798C90.8825 20.2462 90.5911 21.3719 90.0081 22.1257C89.2443 23.1307 88.0583 23.6835 86.7819 23.6835ZM79.2339 18.1557C79.9173 14.045 82.3697 13.9847 82.4501 8.90916V8.7584C82.4501 7.33121 82.0179 6.71813 81.4752 6.71813C80.852 6.71813 80.0781 7.52217 79.656 8.7785C79.2037 10.1052 79.0731 11.9846 79.0731 13.9043C79.0731 15.3717 79.1535 16.8692 79.2339 18.1557Z" fill="white"/>
<path d="M45.6951 44.0752C43.9965 44.0752 42.0568 43.442 41.2226 41.9143C40.911 41.3615 40.7804 40.8288 40.7804 40.3263C40.7804 38.7785 42.0467 37.6026 43.5242 37.6026C43.9664 37.6026 44.4287 37.7031 44.881 37.9443C44.5594 38.5976 44.4187 39.2609 44.4187 39.8941C44.4187 41.7836 45.5946 43.1606 46.7504 43.1606C47.866 43.1606 48.9515 42.0751 48.9515 40.8288C48.9515 39.9745 48.449 39.0298 47.1022 38.3061C45.8258 37.6127 44.2478 37.0699 43.0417 36.497C41.2829 35.6829 40.5492 34.5171 40.5492 33.3613C40.5492 31.2104 43.092 29.0395 46.3082 29.0395C46.4388 29.0395 46.5795 29.0395 46.7102 29.0496C48.9716 29.1802 51.233 30.7481 51.233 32.6075C51.233 33.4115 50.8008 34.2759 49.7455 35.1C48.1575 32.5572 45.3534 31.6627 43.5342 31.6627C42.499 31.6627 41.7754 31.9542 41.7754 32.3863C41.7754 32.909 42.8206 33.6527 45.5946 34.3663C48.5495 35.1302 51.2933 36.4367 51.2933 39.1403C51.2933 41.6731 49.0319 44.0752 45.6951 44.0752ZM60.0071 44.0752H54.7607C56.6402 41.1404 53.7959 31.6125 60.0272 31.6125C61.977 31.6125 62.7308 30.929 62.7308 30.2757C62.7308 29.6827 62.0976 29.1199 61.183 29.1199C60.3891 29.1199 59.3739 29.532 58.3488 30.718C56.9618 32.3361 55.414 33.0497 54.1577 33.0497C52.7406 33.0497 51.7053 32.1451 51.7053 30.5973C51.7053 29.9742 51.8762 29.2506 52.2481 28.4365C52.5295 29.2606 53.1627 29.532 54.0069 29.532C55.5547 29.532 58.0573 28.5571 60.2584 28.5571C62.7409 28.5571 63.8062 29.5018 63.8062 30.4767C63.8062 31.522 62.57 32.6075 60.5298 32.6075C59.1528 32.6075 58.6805 34.1351 58.6805 36.1553C58.6805 38.6579 59.4041 41.9344 60.0071 44.0752ZM61.4645 46.1456C60.6504 46.1456 59.9167 45.7737 59.5247 45.0099C62.7007 45.0099 63.0223 33.7934 65.9872 30.8486C65.7058 30.0245 65.4143 29.4315 65.0827 29.2305C67.7159 29.2305 69.123 29.4616 69.7964 30.8888C70.8618 33.1301 70.9824 39.7635 72.5704 43.8842H70.8919C69.6356 43.8842 68.8717 43.3917 68.4697 42.4872C67.4345 40.1152 66.0375 39.9645 64.8917 38.6881C64.9822 39.1705 65.0626 39.6127 65.1329 40.0248C65.2133 40.5072 65.2535 40.9695 65.2535 41.4017C65.2535 44.5074 63.1831 46.1456 61.4645 46.1456ZM67.8164 40.0147C67.5149 38.2157 66.9521 34.2156 66.2184 31.6024C65.0425 33.0798 64.7008 34.7583 64.6907 36.3161C64.6907 38.5273 66.53 38.869 67.8164 40.0147ZM76.6308 44.0953C74.9222 44.0953 73.294 43.4922 72.8417 42.5877C73.1231 42.658 73.4046 42.6982 73.696 42.6982C76.0479 42.6982 78.7515 40.3464 80.2088 36.9393C79.3344 37.8338 78.0781 38.4066 76.872 38.4066C76.5102 38.4066 76.1584 38.3564 75.8268 38.2559C72.7613 37.3011 74.098 33.1803 71.8668 29.2908H72.9422C74.9825 29.2908 75.9675 29.4315 76.48 31.2205C76.7012 31.9441 77.0228 34.3362 77.6861 36.095C78.0178 36.9795 78.4198 37.3413 78.8118 37.3413C79.7565 37.3413 80.6912 35.2106 80.6912 33.1401C80.6912 31.1702 79.857 29.2606 77.3946 29.2606C77.7464 28.537 78.8319 28.0545 79.9274 28.0445C81.2742 28.0445 82.631 28.7782 82.631 30.6677C82.631 31.5521 82.2792 32.3562 81.9375 33.311C81.1536 35.6126 81.5355 38.3865 81.2541 40.8087C80.9928 43.1807 78.7515 44.0953 76.6308 44.0953ZM88.1287 44.0752C86.4301 44.0752 84.4904 43.442 83.6562 41.9143C83.3446 41.3615 83.2139 40.8288 83.2139 40.3263C83.2139 38.7785 84.4803 37.6026 85.9577 37.6026C86.4 37.6026 86.8623 37.7031 87.3146 37.9443C86.9929 38.5976 86.8522 39.2609 86.8522 39.8941C86.8522 41.7836 88.0282 43.1606 89.184 43.1606C90.2996 43.1606 91.3851 42.0751 91.3851 40.8288C91.3851 39.9745 90.8825 39.0298 89.5357 38.3061C88.2593 37.6127 86.6814 37.0699 85.4753 36.497C83.7165 35.6829 82.9828 34.5171 82.9828 33.3613C82.9828 31.2104 85.5256 29.0395 88.7418 29.0395C88.8724 29.0395 89.0131 29.0395 89.1438 29.0496C91.4052 29.1802 93.6665 30.7481 93.6665 32.6075C93.6665 33.4115 93.2344 34.2759 92.1791 35.1C90.5911 32.5572 87.7869 31.6627 85.9678 31.6627C84.9326 31.6627 84.2089 31.9542 84.2089 32.3863C84.2089 32.909 85.2542 33.6527 88.0282 34.3663C90.983 35.1302 93.7268 36.4367 93.7268 39.1403C93.7268 41.6731 91.4655 44.0752 88.1287 44.0752Z" fill="white"/>
</svg>
