<svg width="74" height="74" viewBox="0 0 74 74" fill="none" xmlns="http://www.w3.org/2000/svg">
<mask id="mask0_482_6358" style="mask-type:luminance" maskUnits="userSpaceOnUse" x="-1" y="-1" width="75" height="75">
<path d="M73.0166 -0.00109863H-0.000976562V73.0165H73.0166V-0.00109863Z" fill="white"/>
</mask>
<g mask="url(#mask0_482_6358)">
<mask id="mask1_482_6358" style="mask-type:luminance" maskUnits="userSpaceOnUse" x="-1" y="-1" width="75" height="75">
<path d="M-0.00170898 -0.00183105H73.0159V73.0158H-0.00170898V-0.00183105Z" fill="white"/>
</mask>
<g mask="url(#mask1_482_6358)">
<path d="M31.6321 45.2391C31.7269 47.4643 30.8812 49.4176 29.5881 50.3207C28.2229 49.5306 27.2145 47.6563 27.1197 45.4311C27.025 43.2059 27.8707 41.2525 29.1638 40.3494C30.529 41.1395 31.5374 43.0138 31.6321 45.2391Z" fill="#FFC638"/>
<path d="M24.8463 47.8583C24.4864 49.3949 22.9871 50.905 20.8848 51.6425C18.7841 52.3795 16.6688 52.1387 15.4283 51.1643C15.7882 49.6277 17.2881 48.1193 19.3898 47.3801C20.404 47.0241 22.1728 46.8477 23.5471 47.1043" fill="#FFC638"/>
<path d="M25.1313 40.3311C24.106 42.3082 22.4002 43.5813 20.829 43.721C20.0751 42.3457 20.1319 40.244 21.1219 38.2516C22.1474 36.2746 23.853 35.0015 25.4242 34.8617C26.2149 36.2265 26.1568 38.3541 25.1313 40.3311Z" fill="#FFC638"/>
<path d="M19.364 41.1184C18.5972 42.4961 16.7391 43.5344 14.5149 43.6638C12.2907 43.7932 10.3249 42.9782 9.40099 41.6992C10.1701 40.3225 12.0281 39.2842 14.2523 39.1548C15.7485 39.0675 17.911 39.7883 18.986 40.5337" fill="#FFC638"/>
<path d="M16.9803 32.4429C18.2852 33.3268 20.4117 33.4158 22.4551 32.5305C24.4985 31.6451 25.8877 30.0335 26.1374 28.4752C24.8302 27.5921 22.7045 27.5015 20.6596 28.3861C19.3425 28.9575 18.0054 30.0875 17.167 31.4054" fill="#FFC638"/>
<path d="M17.1579 33.5511C17.1567 33.5532 17.1567 33.5532 17.1572 33.5548C15.694 34.1419 13.5958 33.7792 11.7865 32.4819C9.97673 31.183 8.96043 29.3126 9.0477 27.7383C10.5109 27.1512 12.6092 27.5139 14.4184 28.8112C14.9704 29.2077 16.2727 30.4321 16.9305 31.3594" fill="#FFC638"/>
<path d="M19.4963 20.6077C19.5012 19.3189 18.5495 17.7504 18.2581 17.2321C17.1681 15.2896 15.4216 14.0732 13.8468 13.9853C13.1011 15.3753 13.2294 17.5 14.3194 19.4425C15.4088 21.3834 17.1558 22.6014 18.7306 22.6893" fill="#FFC638"/>
<path d="M21.7611 17.4864C22.3369 17.129 23.6157 16.5297 24.3397 16.3272C26.4856 15.7302 28.5808 16.1109 29.7539 17.1643C29.2928 18.6732 27.6977 20.0806 25.5519 20.6777C23.4061 21.2748 21.3105 20.8957 20.1377 19.8406C20.142 19.8276 20.1462 19.8146 20.1505 19.8016" fill="#FFC638"/>
<path d="M28.8463 6.45409C28.692 8.67586 27.6288 10.5215 26.243 11.2747C24.9745 10.3372 24.1864 8.36285 24.3407 6.14107C24.495 3.9193 25.5534 2.07259 26.9392 1.31944C28.2077 2.25693 29.0006 4.23232 28.8463 6.45409Z" fill="#FFC638"/>
<mask id="mask2_482_6358" style="mask-type:alpha" maskUnits="userSpaceOnUse" x="11" y="1" width="20" height="52">
<path d="M26.88 47.857C26.5201 49.3936 25.0208 50.9036 22.9185 51.6412C20.8178 52.3781 18.7025 52.1374 17.462 51.163C17.8219 49.6264 19.3217 48.1179 21.4235 47.3788C22.4377 47.0228 24.2065 46.8464 25.5808 47.1029" fill="#FFC738"/>
<path d="M21.3975 41.1173C20.6306 42.495 18.7726 43.5333 16.5484 43.6627C14.3241 43.7921 12.3584 42.9772 11.4344 41.6981C12.2035 40.3214 14.0616 39.2831 16.2858 39.1537C17.7819 39.0664 19.9444 39.7872 21.0194 40.5326" fill="#FFC738"/>
<path d="M19.1916 33.5498C19.1904 33.552 19.1904 33.552 19.1909 33.5536C17.7277 34.1407 15.6295 33.778 13.8202 32.4807C12.0104 31.1818 10.9941 29.3114 11.0814 27.7371C12.5446 27.15 14.6428 27.5127 16.4521 28.81C17.0041 29.2065 18.3064 30.4309 18.9642 31.3582" fill="#FFC738"/>
<path d="M21.5307 20.6065C21.5356 19.3177 20.5839 17.7492 20.2925 17.2309C19.2025 15.2884 17.4561 14.072 15.8813 13.9841C15.1355 15.374 15.2638 17.4988 16.3538 19.4413C17.4432 21.3822 19.1903 22.6002 20.7651 22.6881" fill="#FFC738"/>
<path d="M30.8817 6.4525C30.7274 8.67428 29.6642 10.5199 28.2784 11.2731C27.0099 10.3356 26.2218 8.36126 26.3761 6.13949C26.5304 3.91772 27.5888 2.071 28.9746 1.31785C30.2431 2.25535 31.036 4.23073 30.8817 6.4525Z" fill="#FFC738"/>
</mask>
<g mask="url(#mask2_482_6358)">
<g style="mix-blend-mode:multiply">
<g opacity="0.5">
<path d="M24.8468 47.8579C24.4869 49.3946 22.9876 50.9046 20.8853 51.6421C18.7846 52.3791 16.6693 52.1383 15.4288 51.164C15.7887 49.6274 17.2885 48.1189 19.3903 47.3798C20.4045 47.0238 22.1733 46.8473 23.5476 47.1039" fill="#FFC638"/>
<path d="M19.3643 41.1181C18.5974 42.4957 16.7394 43.534 14.5151 43.6634C12.2909 43.7929 10.3251 42.9779 9.40124 41.6989C10.1703 40.3221 12.0284 39.2839 14.2526 39.1545C15.7487 39.0671 17.9112 39.7879 18.9862 40.5333" fill="#FFC638"/>
<path d="M17.1584 33.5506C17.1572 33.5527 17.1572 33.5527 17.1577 33.5543C15.6945 34.1414 13.5963 33.7787 11.787 32.4814C9.97722 31.1825 8.96092 29.3121 9.04819 27.7378C10.5114 27.1507 12.6096 27.5134 14.4189 28.8107C14.9709 29.2072 16.2732 30.4316 16.931 31.3589" fill="#FFC638"/>
<path d="M19.4968 20.6074C19.5017 19.3185 18.55 17.75 18.2586 17.2317C17.1686 15.2892 15.4221 14.0729 13.8473 13.9849C13.1016 15.3749 13.2299 17.4996 14.3199 19.4421C15.4092 21.3831 17.1563 22.601 18.7311 22.6889" fill="#FFC638"/>
<path d="M28.8468 6.45373C28.6925 8.6755 27.6293 10.5212 26.2435 11.2743C24.975 10.3368 24.1869 8.36248 24.3411 6.14071C24.4954 3.91894 25.5539 2.07223 26.9397 1.31907C28.2082 2.25657 29.0011 4.23195 28.8468 6.45373Z" fill="#FFC638"/>
</g>
</g>
</g>
<path d="M26.2921 11.2784C22.7396 15.2831 17.2979 22.5436 17.0412 29.6845C16.6318 41.073 22.8474 48.7813 31.4379 50.8759C31.8895 50.9859 32.3361 51.1121 32.7769 51.2537M38.8966 54.5118C39.2204 54.7683 39.5242 55.0392 39.8319 55.3168L43.3803 58.5199" stroke="#FFC638" stroke-width="1.18866" stroke-linecap="round" stroke-linejoin="round"/>
<path d="M41.3984 45.2392C41.3037 47.4644 42.1493 49.4177 43.4424 50.3208C44.8076 49.5308 45.8161 47.6564 45.9108 45.4312C46.0055 43.206 45.1598 41.2527 43.8667 40.3495C42.5015 41.1396 41.4931 43.014 41.3984 45.2392Z" fill="#FFC638"/>
<path d="M48.1839 47.8584C48.5439 49.3951 50.0432 50.9051 52.1455 51.6426C54.2461 52.3796 56.3614 52.1388 57.602 51.1645C57.242 49.6278 55.7422 48.1194 53.6405 47.3803C52.6262 47.0243 50.8575 46.8478 49.4832 47.1044" fill="#FFC638"/>
<path d="M47.8988 40.3337C48.9242 42.3107 50.6299 43.5838 52.2011 43.7235C52.9507 42.3471 52.9178 40.2372 51.9082 38.2541C50.8827 36.2771 49.1771 35.004 47.606 34.8643C46.8152 36.229 46.8733 38.3566 47.8988 40.3337Z" fill="#FFC638"/>
<path d="M53.6675 41.1185C54.4343 42.4962 56.2924 43.5345 58.5166 43.6639C60.7408 43.7933 62.7066 42.9784 63.6305 41.6994C62.8614 40.3226 61.0034 39.2844 58.7792 39.1549C57.283 39.0676 55.15 39.7731 54.0524 40.5254" fill="#FFC638"/>
<path d="M56.0502 32.443C54.7453 33.3269 52.6188 33.4159 50.5754 32.5306C48.532 31.6452 47.1428 30.0336 46.8931 28.4753C48.2003 27.5922 50.326 27.5017 52.3709 28.3863C53.6881 28.9576 55.0251 30.0876 55.8635 31.4055" fill="#FFC638"/>
<path d="M55.8734 33.5512C55.8745 33.5533 55.8745 33.5533 55.874 33.5549C57.3372 34.1421 59.4355 33.7793 61.2448 32.4821C63.0545 31.1831 64.0708 29.3127 63.9835 27.7384C62.5204 27.1513 60.4221 27.514 58.6128 28.8113C58.0609 29.2078 56.7585 30.4322 56.1008 31.3595" fill="#FFC638"/>
<path d="M53.5352 20.6078C53.5303 19.319 54.482 17.7505 54.7734 17.2322C55.8634 15.2897 57.6098 14.0733 59.1846 13.9854C59.9304 15.3754 59.8021 17.5001 58.7121 19.4426C57.6227 21.3836 55.8757 22.6015 54.3009 22.6894" fill="#FFC638"/>
<path d="M51.2692 17.4865C50.6934 17.1291 49.4146 16.5298 48.6905 16.3273C46.5447 15.7303 44.4495 16.111 43.2764 17.1644C43.7375 18.6734 45.3326 20.0808 47.4784 20.6778C49.6242 21.2749 51.7198 20.8958 52.8925 19.8407C52.8883 19.8277 52.8841 19.8147 52.8798 19.8017" fill="#FFC638"/>
<path d="M44.1832 6.45421C44.3375 8.67598 45.4007 10.5217 46.7865 11.2748C48.055 10.3373 48.8432 8.36297 48.6889 6.1412C48.5346 3.91942 47.4761 2.07271 46.0904 1.31956C44.8218 2.25706 44.0289 4.23244 44.1832 6.45421Z" fill="#FFC638"/>
<mask id="mask3_482_6358" style="mask-type:alpha" maskUnits="userSpaceOnUse" x="43" y="1" width="15" height="50">
<path d="M43.0934 45.2376C42.9987 47.4628 43.8444 49.4161 45.1375 50.3193C46.5027 49.5292 47.5111 47.6548 47.6058 45.4296C47.7006 43.2044 46.8549 41.2511 45.5618 40.3479C44.1966 41.138 43.1882 43.0124 43.0934 45.2376Z" fill="#FFC738"/>
<path d="M49.5953 40.3299C50.6207 42.3069 52.3265 43.58 53.8976 43.7198C54.6473 42.3433 54.6143 40.2335 53.6048 38.2504C52.5793 36.2733 50.8737 35.0002 49.3025 34.8605C48.5118 36.2252 48.5698 38.3529 49.5953 40.3299Z" fill="#FFC738"/>
<path d="M57.7468 32.4422C56.4418 33.326 54.3154 33.4151 52.272 32.5297C50.2286 31.6444 48.8394 30.0327 48.5896 28.4744C49.8968 27.5914 52.0225 27.5008 54.0675 28.3854C55.3846 28.9568 56.7216 30.0868 57.56 31.4047" fill="#FFC738"/>
<path d="M52.965 17.4848C52.3892 17.1274 51.1104 16.5281 50.3863 16.3256C48.2405 15.7286 46.1453 16.1093 44.9722 17.1627C45.4333 18.6717 47.0284 20.0791 49.1742 20.6761C51.32 21.2732 53.4156 20.8941 54.5883 19.839C54.5841 19.826 54.5799 19.813 54.5756 19.8" fill="#FFC738"/>
<path d="M45.8807 6.45336C46.035 8.67513 47.0982 10.5208 48.484 11.274C49.7525 10.3365 50.5407 8.36211 50.3864 6.14034C50.2321 3.91857 49.1736 2.07186 47.7879 1.31871C46.5193 2.2562 45.7264 4.23159 45.8807 6.45336Z" fill="#FFC738"/>
</mask>
<g mask="url(#mask3_482_6358)">
<g style="mix-blend-mode:multiply">
<g opacity="0.5">
<path d="M41.3969 45.2383C41.3022 47.4635 42.1478 49.4169 43.441 50.32C44.8061 49.5299 45.8146 47.6556 45.9093 45.4303C46.004 43.2051 45.1584 41.2518 43.8652 40.3487C42.5001 41.1387 41.4916 43.0131 41.3969 45.2383Z" fill="#FFC638"/>
<path d="M47.8978 40.3306C48.9232 42.3077 50.629 43.5807 52.2001 43.7205C52.9497 42.344 52.9168 40.2342 51.9073 38.2511C50.8818 36.2741 49.1761 35.001 47.605 34.8612C46.8143 36.226 46.8723 38.3536 47.8978 40.3306Z" fill="#FFC638"/>
<path d="M56.0495 32.443C54.7446 33.3269 52.6181 33.4159 50.5747 32.5306C48.5313 31.6452 47.1421 30.0336 46.8924 28.4753C48.1996 27.5922 50.3253 27.5017 52.3702 28.3863C53.6873 28.9576 55.0244 30.0876 55.8627 31.4055" fill="#FFC638"/>
<path d="M51.2685 17.4857C50.6927 17.1283 49.4138 16.529 48.6898 16.3265C46.544 15.7294 44.4487 16.1101 43.2756 17.1636C43.7368 18.6725 45.3318 20.0799 47.4777 20.677C49.6235 21.274 51.719 20.895 52.8918 19.8399C52.8876 19.8269 52.8833 19.8139 52.8791 19.8008" fill="#FFC638"/>
<path d="M44.1842 6.45385C44.3385 8.67562 45.4017 10.5213 46.7875 11.2744C48.056 10.3369 48.8441 8.3626 48.6899 6.14083C48.5356 3.91906 47.4771 2.07235 46.0913 1.31919C44.8228 2.25669 44.0299 4.23208 44.1842 6.45385Z" fill="#FFC638"/>
</g>
</g>
</g>
<path d="M46.7384 11.2784C50.2909 15.2831 55.7326 22.5436 55.9893 29.6845C56.3987 41.073 50.1832 48.7813 41.5926 50.8759C38.4697 51.6372 35.585 53.1631 33.1986 55.3168L29.6503 58.5199" stroke="#FFC638" stroke-width="1.18866" stroke-linecap="round" stroke-linejoin="round"/>
<path d="M34.9716 54.5155H38.0282C39.3561 54.5155 40.4327 53.4389 40.4327 52.111C40.4327 50.7831 39.3561 49.7065 38.0282 49.7065H34.9716C33.6437 49.7065 32.5671 50.7831 32.5671 52.111C32.5671 53.4389 33.6437 54.5155 34.9716 54.5155Z" fill="#FFC638"/>
<g style="mix-blend-mode:multiply" opacity="0.5">
<g style="mix-blend-mode:multiply">
<path d="M34.2652 52.111C34.2652 50.7831 35.3418 49.7065 36.6697 49.7065H34.9716C33.6437 49.7065 32.5671 50.7831 32.5671 52.111C32.5671 53.4389 33.6437 54.5155 34.9716 54.5155H36.6697C35.3418 54.5155 34.2652 53.4389 34.2652 52.111Z" fill="#FFC638"/>
</g>
</g>
</g>
</g>
</svg>
