<svg width="43" height="38" viewBox="0 0 43 38" fill="none" xmlns="http://www.w3.org/2000/svg">
<path d="M19.4722 13.4593C19.4722 16.2697 18.9664 18.9677 17.9546 21.5533C16.9429 24.2513 15.7625 26.4434 14.4135 28.1297C13.1769 29.8159 11.7716 31.3897 10.1978 32.8512C8.62402 34.3126 7.44364 35.3244 6.6567 35.8864C5.86978 36.4485 5.3077 36.7858 4.97045 36.8982L0.923435 32.6826L3.11557 30.3218C4.0149 29.1976 5.13907 27.399 6.48808 24.9258C8.06189 22.3402 8.73639 20.1481 8.51158 18.3494C6.26324 18.0121 4.35215 17.0004 2.77832 15.3141C1.31689 13.5154 0.586182 11.4357 0.586182 9.07499C0.586182 6.71423 1.42931 4.69073 3.11557 3.00448C4.91423 1.31822 7.10639 0.475098 9.69195 0.475098C12.5024 0.475098 14.8069 1.65547 16.6056 4.01622C18.5167 6.37698 19.4722 9.52468 19.4722 13.4593Z" fill="black"/>
<path d="M42.6187 13.4593C42.6187 16.2697 42.1128 18.9677 41.1011 21.5533C40.0893 24.2513 38.909 26.4434 37.56 28.1297C36.3234 29.8159 34.9181 31.3897 33.3443 32.8512C31.7705 34.3126 30.5901 35.3244 29.8032 35.8864C29.0162 36.4485 28.4542 36.7858 28.1169 36.8982L24.0699 32.6826L26.262 30.3218C27.1614 29.1976 28.2856 27.399 29.6346 24.9258C31.2084 22.3402 31.8829 20.1481 31.6581 18.3494C29.4097 18.0121 27.4986 17.0004 25.9248 15.3141C24.4634 13.5154 23.7327 11.4357 23.7327 9.07499C23.7327 6.71423 24.5758 4.69073 26.262 3.00448C28.0607 1.31822 30.2529 0.475098 32.8384 0.475098C35.6489 0.475098 37.9534 1.65547 39.7521 4.01622C41.6632 6.37698 42.6187 9.52468 42.6187 13.4593Z" fill="black"/>
</svg>
