<svg width="14" height="15" viewBox="0 0 14 15" fill="none" xmlns="http://www.w3.org/2000/svg">
<g clip-path="url(#clip0_482_6253)">
<mask id="mask0_482_6253" style="mask-type:luminance" maskUnits="userSpaceOnUse" x="0" y="0" width="14" height="15">
<path d="M13.2859 0.0142822H0.511353V14.4266H13.2859V0.0142822Z" fill="white"/>
</mask>
<g mask="url(#mask0_482_6253)">
<path d="M10.469 10.234C9.74839 10.8891 8.76572 11.2821 7.71749 11.2821C5.35914 11.2821 3.65587 9.57882 3.65587 7.22046C3.65587 4.86207 5.35914 3.22431 7.71749 3.22431C8.76572 3.22431 9.74839 3.55186 10.469 4.20697L10.9931 4.66554L13.2204 2.43818L12.6308 1.91409C11.3861 0.669389 9.61734 0.0142822 7.71749 0.0142822C3.52484 0.0142822 0.511353 3.02777 0.511353 7.15495C0.511353 11.2821 3.59035 14.4266 7.71749 14.4266C9.61734 14.4266 11.3861 13.7715 12.6963 12.5268L13.2204 12.0027L10.9931 9.77535L10.469 10.234Z" fill="black"/>
<path d="M7.58236 9.64407C8.92105 9.64407 10.0062 8.55887 10.0062 7.22016C10.0062 5.88147 8.92105 4.79626 7.58236 4.79626C6.24366 4.79626 5.15845 5.88147 5.15845 7.22016C5.15845 8.55887 6.24366 9.64407 7.58236 9.64407Z" fill="#FF0000" fill-opacity="0.74"/>
</g>
</g>
<defs>
<clipPath id="clip0_482_6253">
<rect width="13.6804" height="14.4404" fill="white"/>
</clipPath>
</defs>
</svg>
