<svg width="53" height="48" viewBox="0 0 53 48" fill="none" xmlns="http://www.w3.org/2000/svg">
<rect x="0.5" y="0.5" width="52" height="47" rx="23.5" fill="#222222"/>
<rect x="0.5" y="0.5" width="52" height="47" rx="23.5" stroke="#4E4E4E"/>
<path fill-rule="evenodd" clip-rule="evenodd" d="M17.9882 22.8929L17.7188 23.3907H17.917C18.2763 23.3907 19.6411 23.6034 20.7857 23.3907C22.2259 23.1233 23.4185 24.2055 25.968 23.5051C28.5957 22.7834 30.1787 23.5787 30.8214 23.5731C31.457 23.5677 32.429 23.1982 32.429 23.5732C32.429 24.0994 30.7579 22.8769 28.2713 23.3907C26.4314 23.7709 24.9584 23.2267 23.9023 23.5731C20.0553 24.835 18.1274 26.9384 17.7865 30.2456C17.4354 33.6514 19.1398 36.0172 21.9426 36.0142C24.2133 36.0118 26.2764 34.4351 27.1951 31.9997C27.3969 31.4648 27.6572 30.4215 27.6572 30.1476C27.6572 29.9433 27.6706 29.9401 27.941 30.0795C28.2019 30.214 28.4727 30.5664 28.6247 30.9693C28.8053 31.4475 28.7891 32.7374 28.5926 33.5342C28.4041 34.2984 28.0721 35.1082 27.7541 35.5794C27.6227 35.774 27.5153 35.946 27.5153 35.9615C27.5153 35.9771 28.8839 35.9899 30.5565 35.9899H33.5978L33.8209 35.2644C34.3805 33.4438 34.5773 32.0834 34.5222 30.4138C34.4784 29.0836 34.3648 28.4538 34.0118 27.5845C33.178 25.5308 31.3393 24.4826 28.8011 24.6138C27.2237 24.6954 26.3517 25.2668 25.5693 26.7316C24.8437 28.0899 24.4462 28.487 23.8122 28.487C23.2506 28.487 22.9577 28.1199 22.9577 27.416C22.9577 26.3495 24.0127 25.146 25.5507 24.458C27.1683 23.7343 29.4236 24.0507 32.2408 24.0495L33.8558 24.0488L33.8558 22.6686L32.429 22.8929L25.968 23.9013L20.1276 23.1048L17.9882 22.8929Z" fill="#FDF9D3"/>
<path d="M25.8188 10.1826C25.9419 9.95279 26.1939 9.93787 26.3853 10.1494C26.7185 10.5184 27.3445 13.2328 27.3472 14.3223C27.3496 15.2597 27.6163 15.3464 28.0239 14.542C28.861 12.8903 30.2842 11.1222 30.7358 11.1738C30.8987 11.1927 30.9774 11.2614 30.9976 11.4023C31.0133 11.5133 30.7592 12.5128 30.4331 13.623C30.1069 14.7334 29.8525 15.7645 29.8677 15.9141L29.895 16.1855L30.9692 15.4336C33.3878 13.7387 33.7524 13.5 33.9663 13.4697C34.5222 13.3913 34.0935 14.1224 32.1128 16.6318C31.5719 17.3171 31.4891 17.6551 31.8862 17.5557C32.0223 17.5214 32.7772 17.2218 33.564 16.8896C34.351 16.5575 35.2004 16.2132 35.4517 16.124C35.9517 15.9467 36.3819 15.9908 36.3823 16.2197C36.3823 16.4221 36.2243 16.5686 34.1899 18.25C33.7471 18.6161 33.2735 19.0199 33.1382 19.1475C32.8879 19.3834 32.8242 19.6029 32.978 19.6982C33.0252 19.7273 34.0193 19.8112 35.187 19.8838C36.7839 19.9831 37.3632 20.0496 37.5229 20.1543C38.0037 20.4694 37.6024 20.6825 35.2651 21.3516C33.5533 21.8415 33.1451 21.9962 33.2603 22.1113C33.2883 22.1348 34.1758 22.193 35.2368 22.2412C37.1253 22.3269 37.5454 22.4032 37.5454 22.6582C37.545 22.903 37.2235 23.0894 35.979 23.5684L34.6372 24.085L29.1792 24.1143C23.5193 24.1449 23.0108 24.1271 18.1489 23.7236C16.0261 23.5474 15.4876 23.4765 15.311 23.3486C15.0668 23.1709 15.0449 23.0747 15.2026 22.8691C15.5018 22.4799 16.9176 22.1357 18.0503 22.1768C18.8654 22.2062 19.0993 22.1267 18.9956 21.8564C18.9663 21.7808 18.8301 21.6942 18.6929 21.6641C16.4923 21.1826 14.1933 20.1171 14.1929 19.5781C14.1929 19.1128 14.7163 19.1029 17.2065 19.5215C18.2277 19.693 19.1323 19.8114 19.2192 19.7852C19.3847 19.7326 19.5154 19.4412 19.4331 19.3076C19.4053 19.2625 19.2051 19.1656 18.9888 19.0918C18.4874 18.921 17.8334 18.5011 16.5063 17.499C15.5744 16.7952 15.1776 16.3749 15.1772 16.0908C15.1772 16.044 15.3001 15.9623 15.4497 15.9102C15.6765 15.8313 15.9033 15.8678 16.814 16.1309C18.3643 16.5786 19.4422 16.9217 19.9897 17.1406C20.2499 17.2447 20.543 17.3301 20.6411 17.3301C21.0605 17.3301 20.9129 17.0509 19.978 16.0752C19.044 15.1004 18.0062 13.6896 17.8931 13.2402C17.8209 12.9527 17.9646 12.7122 18.1841 12.7529C18.2749 12.77 19.2565 13.4113 20.3647 14.1777C22.3422 15.5452 22.8035 15.8181 22.9272 15.6943C22.9607 15.6594 22.7396 15.138 22.436 14.5352C22.1322 13.9319 21.8201 13.1764 21.7417 12.8564C21.6634 12.5366 21.4824 12.0174 21.3403 11.7031C21.0389 11.036 21.0131 10.7482 21.2485 10.6865C21.4222 10.6412 21.8337 10.7954 22.0708 10.9951C22.2967 11.1855 23.354 12.5016 23.7456 13.0801C23.9454 13.3754 24.2751 13.9251 24.478 14.3018C25.0521 15.3673 25.2084 15.3073 25.3296 13.9746C25.4953 12.1509 25.7268 10.3551 25.8188 10.1826ZM27.644 17.4463C26.2599 16.0621 24.6735 16.8696 24.0532 17.4463L23.3022 18.001C22.1928 18.621 21.6055 19.5674 21.3442 19.9268C21.0832 20.2857 21.1801 22.5368 21.1802 22.832C21.1802 23.0671 23.1187 23.0823 24.4136 23.0605V21.3135C24.4136 20.9843 24.6506 20.7028 24.9751 20.6475L25.355 20.583C25.7672 20.513 26.1431 20.8309 26.1431 21.249V23.0605C26.5087 23.2434 29.4938 22.9844 30.6147 22.832C30.6474 22.266 30.6931 20.9976 30.6147 20.4492C30.5168 19.764 29.8972 18.9159 29.6685 18.8174C29.4856 18.739 28.2425 17.8707 27.644 17.4463Z" fill="#FDF9D3"/>
</svg>
