<svg width="30" height="30" viewBox="0 0 30 30" fill="none" xmlns="http://www.w3.org/2000/svg">
<path d="M15 9.84375C13.9802 9.84375 12.9833 10.1462 12.1353 10.7127C11.2874 11.2793 10.6265 12.0846 10.2362 13.0268C9.84598 13.969 9.74387 15.0057 9.94283 16.0059C10.1418 17.0061 10.6329 17.9249 11.354 18.646C12.0751 19.3671 12.9939 19.8582 13.9941 20.0572C14.9943 20.2561 16.031 20.154 16.9732 19.7638C17.9154 19.3735 18.7207 18.7126 19.2873 17.8647C19.8538 17.0167 20.1562 16.0198 20.1562 15C20.1547 13.633 19.611 12.3223 18.6443 11.3557C17.6777 10.389 16.367 9.84529 15 9.84375ZM15 19.2188C14.1656 19.2188 13.35 18.9713 12.6562 18.5078C11.9624 18.0442 11.4217 17.3853 11.1024 16.6144C10.7831 15.8436 10.6995 14.9953 10.8623 14.177C11.0251 13.3586 11.4269 12.6069 12.0169 12.0169C12.6069 11.4269 13.3586 11.0251 14.177 10.8623C14.9953 10.6995 15.8436 10.7831 16.6144 11.1024C17.3853 11.4217 18.0442 11.9624 18.5078 12.6562C18.9713 13.35 19.2188 14.1656 19.2188 15C19.2175 16.1185 18.7726 17.1908 17.9817 17.9817C17.1908 18.7726 16.1185 19.2175 15 19.2188ZM20.1562 3.75H9.84375C8.22815 3.75183 6.67924 4.39444 5.53684 5.53684C4.39444 6.67924 3.75183 8.22815 3.75 9.84375V20.1562C3.75183 21.7719 4.39444 23.3208 5.53684 24.4632C6.67924 25.6056 8.22815 26.2482 9.84375 26.25H20.1562C21.7719 26.2482 23.3208 25.6056 24.4632 24.4632C25.6056 23.3208 26.2482 21.7719 26.25 20.1562V9.84375C26.2482 8.22815 25.6056 6.67924 24.4632 5.53684C23.3208 4.39444 21.7719 3.75183 20.1562 3.75ZM25.3125 20.1562C25.311 21.5233 24.7672 22.8339 23.8006 23.8006C22.8339 24.7672 21.5233 25.311 20.1562 25.3125H9.84375C8.4767 25.311 7.16609 24.7672 6.19944 23.8006C5.23279 22.8339 4.68904 21.5233 4.6875 20.1562V9.84375C4.68904 8.4767 5.23279 7.16609 6.19944 6.19944C7.16609 5.23279 8.4767 4.68904 9.84375 4.6875H20.1562C21.5233 4.68904 22.8339 5.23279 23.8006 6.19944C24.7672 7.16609 25.311 8.4767 25.3125 9.84375V20.1562ZM22.0312 8.90625C22.0312 9.09167 21.9763 9.27293 21.8733 9.4271C21.7702 9.58127 21.6238 9.70143 21.4525 9.77239C21.2812 9.84334 21.0927 9.86191 20.9109 9.82574C20.729 9.78956 20.5619 9.70027 20.4308 9.56916C20.2997 9.43805 20.2104 9.271 20.1743 9.08915C20.1381 8.90729 20.1567 8.71879 20.2276 8.54748C20.2986 8.37618 20.4187 8.22976 20.5729 8.12675C20.7271 8.02373 20.9083 7.96875 21.0938 7.96875C21.3423 7.96903 21.5806 8.0679 21.7563 8.24365C21.9321 8.4194 22.031 8.6577 22.0312 8.90625Z" fill="#F9F5EB"/>
</svg>
