<svg width="26" height="28" viewBox="0 0 26 28" fill="none" xmlns="http://www.w3.org/2000/svg">
<path d="M25.4661 15.301C24.818 17.7632 21.7556 19.503 15.6304 22.9828C9.70933 26.3466 6.74887 28.0287 4.36302 27.3526C3.37663 27.073 2.47792 26.5423 1.75311 25.8109C3.27826e-07 24.0421 0 20.6114 0 13.75C0 6.88857 3.27826e-07 3.45785 1.75311 1.68909C2.47792 0.957825 3.37663 0.426947 4.36302 0.147437C6.74887 -0.528641 9.70933 1.1533 15.6304 4.51721C21.7556 7.99695 24.818 9.73683 25.4661 12.199C25.7336 13.2154 25.7336 14.2846 25.4661 15.301Z" fill="#131314"/>
</svg>
