<svg width="10" height="10" viewBox="0 0 10 10" fill="none" xmlns="http://www.w3.org/2000/svg">
<g clip-path="url(#clip0_482_6262)">
<g clip-path="url(#clip1_482_6262)">
<path d="M5.65257 1.01911L6.44106 2.59609C6.54731 2.81418 6.83251 3.0211 7.073 3.06583L8.49896 3.3007C9.41049 3.45169 9.62299 4.11156 8.96869 4.77143L7.85585 5.88426C7.67136 6.06881 7.56511 6.4323 7.62661 6.69513L7.94535 8.07081C8.19696 9.15565 7.61542 9.58064 6.65915 9.01028L5.32263 8.21618C5.08217 8.07081 4.67954 8.07081 4.43908 8.21618L3.10255 9.01028C2.1463 9.57508 1.56471 9.15565 1.81636 8.07081L2.13511 6.69513C2.18544 6.42671 2.07919 6.06322 1.89465 5.87868L0.781817 4.76584C0.127535 4.11156 0.340036 3.45169 1.25155 3.29511L2.67755 3.06024C2.91801 3.0211 3.20321 2.8086 3.30946 2.5905L4.09796 1.01351C4.52855 0.16351 5.22197 0.163511 5.65257 1.01911Z" fill="#FFC149"/>
</g>
</g>
<defs>
<clipPath id="clip0_482_6262">
<rect width="9.72827" height="9.72827" fill="white"/>
</clipPath>
<clipPath id="clip1_482_6262">
<rect width="9.72827" height="9.72827" fill="white"/>
</clipPath>
</defs>
</svg>
